<svg xmlns="http://www.w3.org/2000/svg" width="24.756" height="33.602" viewBox="0 0 24.756 33.602">
  <g id="LOGO_BAOWAN" data-name="LOGO BAOWAN" transform="translate(0 0)">
    <path id="Path_1" data-name="Path 1" d="M97.174,108.7a8.768,8.768,0,0,0,.927-5.081,4.364,4.364,0,0,0-4.889-3.524,7.6,7.6,0,0,0-2.849,1.205,17.449,17.449,0,0,0-3.408,2.961l.082.1c.237-.146.472-.3.711-.438a10.893,10.893,0,0,1,3.977-1.563c2.122-.3,3.281,1.081,2.576,3.1a5.693,5.693,0,0,1-.294.68,8.471,8.471,0,0,1-2.2,2.647,20.368,20.368,0,0,1-8.517,4,15.541,15.541,0,0,1-7.154.2c-.781-.174-1.536-.463-2.351-.715a3.049,3.049,0,0,0,.075.469c.51,1.582.96,3.188,1.561,4.736a11.717,11.717,0,0,0,2.806,4.324,4.23,4.23,0,0,0,4.813,1.033c.474-.19.948-.386,1.4-.62A25.572,25.572,0,0,0,90.38,117.8a29.926,29.926,0,0,0,6.794-9.1" transform="translate(-73.738 -90.138)" fill="#90caf9"/>
    <path id="Path_2" data-name="Path 2" d="M74.615,113.862a8.048,8.048,0,0,0,2.385.544,18.535,18.535,0,0,0,7.708-1.511,17.4,17.4,0,0,0,5.946-3.556c.536-.517.977-1.133,1.462-1.7l-.139-.117a.267.267,0,0,0-.094-.009c-.079.022-.156.053-.234.081a16.964,16.964,0,0,1-9.059.683,3.626,3.626,0,0,1-2.473-1.4,1.255,1.255,0,0,1,.443-2.007,14.767,14.767,0,0,1,1.973-.756c.217-.078.448-.118.673-.176a1.4,1.4,0,0,0-.649-.343,6.682,6.682,0,0,0-4.683.482,8.257,8.257,0,0,0-4.6,7.728,2.048,2.048,0,0,0,1.345,2.066" transform="translate(-73.27 -93.142)" fill="#6da1ff"/>
    <path id="Path_3" data-name="Path 3" d="M216.488,184.652c-.031-.432-.081-.862-.135-1.427-.1.174-.131.21-.135.25a9.07,9.07,0,0,1-1.285,3.658,24.829,24.829,0,0,1-7.766,8.494,11.1,11.1,0,0,0-2.121,1.895c-.517.592-.23,1.09.558,1.157a5.5,5.5,0,0,0,2.589-.535,13.562,13.562,0,0,0,8.295-13.49" transform="translate(-191.768 -165.089)" fill="#6da1ff"/>
    <path id="Path_4" data-name="Path 4" d="M197.249.006a19.192,19.192,0,0,0-7.814,3.434,6.4,6.4,0,0,0-2.566,7.193c.167.652.427,1.281.644,1.92l.147-.04c0-.259,0-.518,0-.777a15.57,15.57,0,0,1,.677-4.731c.758-2.338,2.575-3.458,4.769-4.161-2.427,1.777-4.337,3.883-4.683,7.062.938-.124,2.958-1.454,4.365-2.869A26.252,26.252,0,0,0,197.553,0a2.113,2.113,0,0,0-.3,0" transform="translate(-175.39 0)" fill="#2d5fb9"/>
    <path id="Path_5" data-name="Path 5" d="M85.66,37.393a13.067,13.067,0,0,0-5.185-.5c-.383.033-.763.1-1.179.159,1.432,2.107,6.766,4.79,8.448,4.271a7.083,7.083,0,0,0-4.735-3.431,4.291,4.291,0,0,1,4.4,1.992A26.1,26.1,0,0,1,88.71,42.37c.075.147.132.3.2.456A3.424,3.424,0,0,0,89,41.81a4.563,4.563,0,0,0-3.338-4.417" transform="translate(-78.699 -33.182)" fill="#2d5fb9"/>
  </g>
</svg>
